HIERARCHY
ROOT Hips
{
	OFFSET 0.000000 0.000000 0.000000
	CHANNELS 6 Xposition Yposition Zposition Zrotation Yrotation Xrotation 
	JOINT LHipJoint
	{
		OFFSET 0.000000 0.000000 0.000000
		CHANNELS 3 Zrotation Yrotation Xrotation
		JOINT LeftUpLeg
		{
			OFFSET 1.363060 -1.794630 0.839290
			CHANNELS 3 Zrotation Yrotation Xrotation
			JOINT LeftLeg
			{
				OFFSET 2.448110 -6.726130 0.000000
				CHANNELS 3 Zrotation Yrotation Xrotation
				JOINT LeftFoot
				{
					OFFSET 2.562200 -7.039590 0.000000
					CHANNELS 3 Zrotation Yrotation Xrotation
					JOINT LeftToeBase
					{
						OFFSET 0.157640 -0.433110 2.322550
						CHANNELS 3 Zrotation Yrotation Xrotation
						End Site
						{
							OFFSET 0.000000 0.000000 0.000000
						}
					}
				}
			}
		}
	}
	JOINT RHipJoint
	{
		OFFSET 0.000000 0.000000 0.000000
		CHANNELS 3 Zrotation Yrotation Xrotation
		JOINT RightUpLeg
		{
			OFFSET -1.305520 -1.794630 0.839290
			CHANNELS 3 Zrotation Yrotation Xrotation
			JOINT RightLeg
			{
				OFFSET -2.542530 -6.985550 0.000000
				CHANNELS 3 Zrotation Yrotation Xrotation
				JOINT RightFoot
				{
					OFFSET -2.568260 -7.056230 0.000000
					CHANNELS 3 Zrotation Yrotation Xrotation
					JOINT RightToeBase
					{
						OFFSET -0.164730 -0.452590 2.363150
						CHANNELS 3 Zrotation Yrotation Xrotation
						End Site
						{
							OFFSET 0.000000 0.000000 0.000000
						}
					}
				}
			}
		}
	}
	JOINT LowerBack
	{
		OFFSET 0.000000 0.000000 0.000000
		CHANNELS 3 Zrotation Yrotation Xrotation
		JOINT Spine
		{
			OFFSET 0.028270 2.035590 -0.193380
			CHANNELS 3 Zrotation Yrotation Xrotation
			JOINT Spine1
			{
				OFFSET 0.056720 2.048850 -0.042750
				CHANNELS 3 Zrotation Yrotation Xrotation
				JOINT Neck
				{
					OFFSET 0.000000 0.000000 0.000000
					CHANNELS 3 Zrotation Yrotation Xrotation
					JOINT Neck1
					{
						OFFSET -0.054170 1.746240 0.172020
						CHANNELS 3 Zrotation Yrotation Xrotation
						JOINT Head
						{
							OFFSET 0.104070 1.761360 -0.123970
							CHANNELS 3 Zrotation Yrotation Xrotation
							End Site
							{
								OFFSET 0.000000 0.000000 0.000000
							}
						}
					}
				}
				JOINT LeftShoulder
				{
					OFFSET 0.000000 0.000000 0.000000
					CHANNELS 3 Zrotation Yrotation Xrotation
					JOINT LeftArm
					{
						OFFSET 3.362410 1.200890 -0.311210
						CHANNELS 3 Zrotation Yrotation Xrotation
						JOINT LeftForeArm
						{
							OFFSET 4.983000 -0.000000 -0.000000
							CHANNELS 3 Zrotation Yrotation Xrotation
							JOINT LeftHand
							{
								OFFSET 3.483560 -0.000000 -0.000000
								CHANNELS 3 Zrotation Yrotation Xrotation
								JOINT LeftFingerBase
								{
									OFFSET 0.000000 0.000000 0.000000
									CHANNELS 3 Zrotation Yrotation Xrotation
									JOINT LeftHandIndex1
									{
										OFFSET 0.715260 -0.000000 -0.000000
										CHANNELS 3 Zrotation Yrotation Xrotation
										End Site
										{
											OFFSET 0.000000 0.000000 0.000000
										}
									}
								}
								JOINT LThumb
								{
									OFFSET 0.000000 0.000000 0.000000
									CHANNELS 3 Zrotation Yrotation Xrotation
									End Site
									{
										OFFSET 0.000000 0.000000 0.000000
									}
								}
							}
						}
					}
				}
				JOINT RightShoulder
				{
					OFFSET 0.000000 0.000000 0.000000
					CHANNELS 3 Zrotation Yrotation Xrotation
					JOINT RightArm
					{
						OFFSET -3.136600 1.374050 -0.404650
						CHANNELS 3 Zrotation Yrotation Xrotation
						JOINT RightForeArm
						{
							OFFSET -5.241900 -0.000000 -0.000000
							CHANNELS 3 Zrotation Yrotation Xrotation
							JOINT RightHand
							{
								OFFSET -3.444170 -0.000000 -0.000000
								CHANNELS 3 Zrotation Yrotation Xrotation
								JOINT RightFingerBase
								{
									OFFSET 0.000000 0.000000 0.000000
									CHANNELS 3 Zrotation Yrotation Xrotation
									JOINT RightHandIndex1
									{
										OFFSET -0.622530 -0.000000 -0.000000
										CHANNELS 3 Zrotation Yrotation Xrotation
										End Site
										{
											OFFSET 0.000000 0.000000 0.000000
										}
									}
								}
								JOINT RThumb
								{
									OFFSET 0.000000 0.000000 0.000000
									CHANNELS 3 Zrotation Yrotation Xrotation
									End Site
									{
										OFFSET 0.000000 0.000000 0.000000
									}
								}
							}
						}
					}
				}
			}
		}
	}
}
MOTION
Frames: 12
Frame Time: 0.008333
13.818347 15.367778 2.550162 21.573353 -88.552173 22.747916 -8.936765 -0.113681 5.015631 -9.067520 -10.323018 -78.986229 -1.111568 3.485313 57.065209 3.767001 9.738500 -26.144169 -3.093300 0.000000 -41.352300 8.717032 0.956468 4.151369 7.629387 2.283729 -79.730629 1.655258 -5.264435 58.765092 -2.102784 -2.269833 -22.395484 0.985400 0.000000 -59.508100 1.303392 -1.882598 -7.776832 -0.425935 -2.312019 -4.603544 -5.811366 -2.555133 1.126841 11.184783 -7.411254 -14.422940 -2.997608 -0.115692 -2.387151 0.000000 0.000000 0.000000 0.549501 10.053181 3.629403 -74.552081 -4.990723 -19.983720 -0.058449 -36.915984 -0.024276 49.268527 -12.584899 -5.790940 0.062673 0.013348 0.000000 0.000000 0.000000 0.000000 0.000000 0.000000 0.000000 12.727494 -5.306000 3.109528 73.214100 14.333990 -31.997120 -0.409088 31.318242 -0.080118 -43.136611 23.717891 -9.580787 0.078957 -0.178540 -0.000000 0.000000 0.000000 0.000000 0.000000 0.000000 0.000000 
13.824815 15.285434 2.529603 21.546083 -88.494652 23.256142 -8.936307 -0.184676 5.031308 -8.869578 -10.491085 -80.296004 -1.016426 3.649357 58.446526 3.791483 9.718601 -26.600378 -3.179100 -0.000000 -41.373899 8.697277 1.031674 4.194945 7.565641 2.564029 -80.986498 1.522351 -5.421047 60.187882 -2.189722 -2.465385 -23.019112 1.080400 0.000000 -59.217800 1.332350 -1.894410 -7.788465 -0.422516 -2.327880 -4.613373 -5.809108 -2.573020 1.132087 11.249674 -7.454517 -14.500128 -3.006046 -0.115209 -2.420034 0.000000 0.000000 0.000000 0.434767 10.112195 3.665048 -74.798891 -4.764097 -19.471293 -0.050918 -36.528461 -0.024672 49.137247 -12.432069 -5.703633 0.061403 0.014503 -0.000000 0.000000 0.000000 0.000000 0.000000 0.000000 0.000000 12.896663 -5.324244 3.147527 73.417598 14.294340 -31.489560 -0.382097 30.516918 -0.078907 -42.834376 23.849682 -9.561781 0.080716 -0.179216 -0.000000 0.000000 0.000000 0.000000 0.000000 0.000000 0.000000 
13.830724 15.202595 2.508840 22.134645 -88.401986 23.133362 -8.921067 -0.249041 5.047222 -8.695256 -10.696431 -81.562039 -0.919194 3.804889 59.797484 3.816763 9.708598 -27.041185 -3.264600 0.000000 -41.386700 8.693061 1.118178 4.237366 7.455899 2.803075 -82.212385 1.385544 -5.575665 61.596531 -2.281478 -2.678185 -23.668390 1.184500 -0.000000 -58.911800 1.350755 -1.913669 -7.800231 -0.421063 -2.350970 -4.624629 -5.809426 -2.598521 1.130354 11.308876 -7.479192 -14.560634 -3.018101 -0.115334 -2.447377 0.000000 0.000000 0.000000 0.331324 10.117749 3.703475 -75.019340 -4.508487 -19.016290 -0.042520 -36.115475 -0.025071 49.004593 -12.268128 -5.611328 0.060655 0.015518 -0.000000 0.000000 0.000000 0.000000 0.000000 0.000000 0.000000 13.070025 -5.331132 3.187073 73.594150 14.211309 -31.041580 -0.357178 29.743819 -0.077653 -42.528512 23.988009 -9.543673 0.082212 -0.179709 -0.000000 0.000000 0.000000 0.000000 0.000000 0.000000 0.000000 
13.836262 15.119691 2.488207 23.209543 -88.280456 22.508295 -8.893081 -0.309266 5.060378 -8.541517 -10.934731 -82.780160 -0.820192 3.951606 61.115609 3.843109 9.710056 -27.468399 -3.350800 -0.000000 -41.383200 8.701916 1.215059 4.276530 7.302107 3.003534 -83.406595 1.245084 -5.728269 62.987948 -2.375028 -2.901151 -24.328542 1.295300 0.000000 -58.577000 1.360972 -1.938176 -7.805638 -0.420323 -2.378765 -4.630821 -5.808762 -2.628581 1.140330 11.366451 -7.528834 -14.626746 -3.028105 -0.115190 -2.476056 0.000000 0.000000 0.000000 0.229056 10.146373 3.738132 -75.215726 -4.325393 -18.596197 -0.034824 -35.610201 -0.025498 48.865029 -12.121338 -5.526525 0.060304 0.016433 0.000000 0.000000 0.000000 0.000000 0.000000 0.000000 0.000000 13.245338 -5.373892 3.222493 73.744531 14.157075 -30.647895 -0.333950 28.948785 -0.076332 -42.226677 24.146197 -9.533767 0.083481 -0.180016 -0.000000 0.000000 0.000000 0.000000 0.000000 0.000000 0.000000 
13.841234 15.036993 2.467909 24.668062 -88.135143 21.494234 -8.854271 -0.365934 5.074858 -8.402102 -11.209587 -83.961740 -0.719330 4.088652 62.394960 3.872230 9.728424 -27.880660 -3.438500 0.000000 -41.357500 8.721830 1.319665 4.318670 7.099021 3.177415 -84.585359 1.099038 -5.878270 64.360406 -2.468871 -3.136116 -24.975343 1.410400 0.000000 -58.254700 1.365088 -1.966235 -7.815503 -0.420547 -2.410099 -4.638573 -5.808635 -2.662416 1.147033 11.413143 -7.561954 -14.682570 -3.040794 -0.115478 -2.501312 0.000000 0.000000 0.000000 0.121977 10.147534 3.774438 -75.383699 -4.149654 -18.239080 -0.025924 -35.058907 -0.025899 48.725533 -11.967404 -5.438724 0.060614 0.017131 -0.000000 0.000000 0.000000 0.000000 0.000000 0.000000 0.000000 13.417210 -5.405191 3.259428 73.868763 14.070507 -30.322309 -0.314686 28.175401 -0.075104 -41.937913 24.281021 -9.516862 0.084577 -0.180245 0.000000 0.000000 0.000000 0.000000 0.000000 0.000000 0.000000 
13.845646 14.954817 2.448204 26.367012 -87.972790 20.239380 -8.807755 -0.421126 5.091651 -8.269474 -11.517753 -85.113627 -0.616558 4.216142 63.633095 3.905100 9.767464 -28.278071 -3.528701 0.000000 -41.306401 8.749185 1.429361 4.365959 6.848019 3.334492 -85.755938 0.946944 -6.024750 65.710020 -2.561469 -3.381881 -25.592323 1.527400 -0.000001 -57.960401 1.365858 -1.996040 -7.832600 -0.421227 -2.443309 -4.648934 -5.808260 -2.698337 1.149265 11.445546 -7.572142 -14.728050 -3.056437 -0.116224 -2.523243 0.000000 0.000000 0.000000 0.003380 10.123936 3.813005 -75.521938 -3.983976 -17.950507 -0.015333 -34.463668 -0.026268 48.587252 -11.804332 -5.347225 0.061632 0.017604 -0.000000 0.000000 0.000000 0.000000 0.000000 0.000000 0.000000 13.581293 -5.416351 3.298734 73.966494 13.947876 -30.064995 -0.300232 27.426377 -0.074055 -41.666430 24.372976 -9.486659 0.085579 -0.180497 0.000000 0.000000 0.000000 0.000000 0.000000 0.000000 0.000000 
13.849610 14.873446 2.429408 28.070575 -87.806237 18.983514 -8.759270 -0.478185 5.109778 -8.131329 -11.844376 -86.242934 -0.511896 4.335751 64.831454 3.941607 9.826941 -28.663069 -3.621799 0.000000 -41.228900 8.777415 1.540260 4.418346 6.560356 3.491766 -86.916203 0.789713 -6.165186 67.027924 -2.652275 -3.638231 -26.169043 1.645100 -0.000000 -57.691200 1.369191 -2.023630 -7.854917 -0.420901 -2.474504 -4.658914 -5.805276 -2.732098 1.156730 11.465507 -7.583845 -14.775895 -3.071653 -0.116920 -2.545845 0.000000 0.000000 0.000000 -0.133372 10.118520 3.850189 -75.632162 -3.881450 -17.715615 -0.003425 -33.791995 -0.026639 48.447453 -11.647067 -5.258527 0.063233 0.017915 -0.000000 0.000000 0.000000 0.000000 0.000000 0.000000 0.000000 13.735214 -5.431718 3.337889 74.035680 13.833015 -29.863631 -0.289865 26.669270 -0.073184 -41.412585 24.422503 -9.443757 0.086630 -0.180863 0.000000 0.000000 0.000000 0.000000 0.000000 0.000000 0.000000 
13.853209 14.793153 2.411658 29.674625 -87.644193 17.834625 -8.711501 -0.538023 5.130791 -7.977542 -12.182389 -87.358835 -0.404993 4.448200 65.989769 3.982441 9.909712 -29.035386 -3.718500 -0.000000 -41.126900 8.803161 1.650082 4.477468 6.243147 3.660606 -88.069649 0.627984 -6.298053 68.308015 -2.741314 -3.906409 -26.697786 1.762600 0.000000 -57.462100 1.379748 -2.046684 -7.885621 -0.418995 -2.501788 -4.671682 -5.800280 -2.761954 1.160716 11.468623 -7.575733 -14.817763 -3.088607 -0.117895 -2.566708 0.000000 0.000000 0.000000 -0.290330 10.103416 3.889006 -75.713999 -3.804663 -17.549211 0.011258 -33.075427 -0.027028 48.307567 -11.482274 -5.166831 0.065446 0.018109 -0.000000 0.000000 0.000000 0.000000 0.000000 0.000000 0.000000 13.875485 -5.425567 3.380252 74.076703 13.698473 -29.718366 -0.284455 25.924519 -0.072583 -41.174778 24.406258 -9.379057 0.087821 -0.181480 0.000000 0.000000 0.000000 0.000000 0.000000 0.000000 0.000000 
13.856531 14.714100 2.394984 31.108663 -87.494513 16.865805 -8.666297 -0.601214 5.155118 -7.800078 -12.524074 -88.468148 -0.295604 4.554274 67.108872 4.028033 10.017669 -29.395237 -3.819300 -0.000000 -41.003600 8.823825 1.757301 4.543553 5.904497 3.849833 -89.217177 0.462992 -6.422188 69.545013 -2.829025 -4.186960 -27.177558 1.879500 -0.000000 -57.272000 1.400245 -2.063755 -7.925051 -0.414842 -2.523874 -4.686774 -5.792663 -2.786546 1.163373 11.456595 -7.552726 -14.857134 -3.106351 -0.119006 -2.586982 0.000000 0.000000 0.000000 -0.467538 10.091431 3.928771 -75.767697 -3.764479 -17.444326 0.028708 -32.313383 -0.027466 48.167260 -11.310884 -5.072634 0.068141 0.018266 -0.000000 0.000000 0.000000 0.000000 0.000000 0.000000 0.000000 14.002022 -5.401874 3.425115 74.089670 13.557795 -29.618541 -0.283528 25.183957 -0.072254 -40.949818 24.321293 -9.291057 0.089248 -0.182409 0.000000 0.000000 0.000000 0.000000 0.000000 0.000000 0.000000 
13.859584 14.636406 2.379366 32.324233 -87.364141 16.127548 -8.625135 -0.667933 5.182940 -7.591831 -12.861140 -89.575762 -0.183468 4.654751 68.190348 4.078459 10.151705 -29.742123 -3.924400 0.000001 -40.863900 8.837427 1.860615 4.615870 5.554390 4.065909 -90.356316 0.296495 -6.536598 70.733684 -2.916414 -4.480837 -27.612596 1.996600 0.000000 -57.114900 1.433359 -2.073542 -7.972436 -0.407991 -2.539628 -4.704446 -5.782532 -2.804737 1.163188 11.430530 -7.513556 -14.893546 -3.124779 -0.120243 -2.606647 0.000000 0.000000 0.000000 -0.662845 10.078934 3.969930 -75.794663 -3.752507 -17.399491 0.049443 -31.519621 -0.027997 48.025281 -11.128303 -4.973740 0.071169 0.018499 -0.000000 0.000000 0.000000 0.000000 0.000000 0.000000 0.000000 14.115077 -5.357918 3.473119 74.075695 13.412499 -29.557247 -0.286870 24.449831 -0.072198 -40.733135 24.166457 -9.178661 0.090978 -0.183707 0.000000 0.000000 0.000000 0.000000 0.000000 0.000000 0.000000 
13.862471 14.560108 2.364653 33.314483 -87.256935 15.626568 -8.588376 -0.737966 5.214148 -7.349047 -13.188129 -90.684234 -0.068454 4.750151 69.236193 4.133679 10.311968 -30.075983 -4.034100 0.000000 -40.711800 8.843189 1.959502 4.693224 5.200539 4.310797 -91.484773 0.130242 -6.641039 71.870882 -3.004423 -4.787949 -28.010109 2.114700 0.000001 -56.980799 1.479358 -2.075904 -8.026345 -0.398375 -2.548893 -4.724058 -5.770004 -2.816340 1.161249 11.394074 -7.463218 -14.929068 -3.143174 -0.121500 -2.626395 0.000000 0.000000 0.000000 -0.872231 10.070984 4.011977 -75.796314 -3.769479 -17.405986 0.073342 -30.702682 -0.028649 47.880136 -10.933146 -4.869546 0.074338 0.018915 -0.000000 0.000000 0.000000 0.000000 0.000000 0.000000 0.000000 14.217024 -5.298620 3.523672 74.036878 13.272509 -29.526162 -0.293895 23.720319 -0.072378 -40.520808 23.949364 -9.044465 0.093039 -0.185366 0.000000 0.000000 0.000000 0.000000 0.000000 0.000000 0.000000 
13.865369 14.485346 2.350704 34.085109 -87.174521 15.352320 -8.556002 -0.811351 5.246933 -7.071676 -13.499329 -91.789991 0.049246 4.840956 70.248629 4.193160 10.496952 -30.397371 -4.148300 -0.000000 -40.549200 8.840815 2.053995 4.772112 4.851855 4.581668 -92.595172 -0.033752 -6.735881 72.955389 -3.093633 -5.106184 -28.380731 2.234900 -0.000000 -56.853100 1.536521 -2.071231 -8.081097 -0.386415 -2.551709 -4.743775 -5.755316 -2.821314 1.159222 11.352083 -7.411468 -14.966721 -3.160410 -0.122612 -2.647238 0.000000 0.000000 0.000000 -1.089194 10.072294 4.053936 -75.774967 -3.819169 -17.453854 0.100175 -29.870229 -0.029471 47.728773 -10.726906 -4.760552 0.077404 0.019641 -0.000000 0.000000 0.000000 0.000000 0.000000 0.000000 0.000000 14.311316 -5.234542 3.576054 73.975992 13.152919 -29.518247 -0.304127 22.992009 -0.072747 -40.309756 23.684454 -8.893570 0.095415 -0.187349 0.000000 0.000000 0.000000 0.000000 0.000000 0.000000 0.000000 
